Coordinates
version=1
nRows=14
nColumns=24
inDegrees=yes

Units are S.I. units (second, meters, Newtons, ...)
Angles are in degrees.

endheader
time	pelvis_tilt	pelvis_list	pelvis_rotation	pelvis_tx	pelvis_ty	pelvis_tz	hip_flexion_r	hip_adduction_r	hip_rotation_r	knee_angle_r	ankle_angle_r	subtalar_angle_r	mtp_angle_r	hip_flexion_l	hip_adduction_l	hip_rotation_l	knee_angle_l	ankle_angle_l	subtalar_angle_l	mtp_angle_l	lumbar_extension	lumbar_bending	lumbar_rotation
      6.20000000	      1.21549855	     -6.18841923	     -1.23059133	     -1.01540135	      0.91252926	      0.24442476	    -13.32839365	     10.58156676	     -0.63956196	    -11.74506959	     19.08652922	      0.85326985	      0.00000000	     19.19489989	     -3.27128408	    -11.35896398	     -1.54377275	      6.86222991	      0.55741158	      0.00000000	    -19.54274984	      6.84382969	      4.77088196
      6.21000000	      1.25896123	     -6.08908467	     -1.22526791	     -1.00419536	      0.91167586	      0.24343836	    -13.64706562	     10.32864933	     -0.65229931	    -12.63678136	     18.70486542	      1.01623931	      0.00000000	     19.02341332	     -3.00908453	     -9.91087530	     -2.42675197	      6.29660217	     -0.16888452	      0.00000000	    -19.36799700	      6.71228220	      4.76123379
      6.22000000	      1.30815190	     -5.92245205	     -1.22086113	     -0.99282786	      0.91098775	      0.24235933	    -13.87943322	      9.98811119	     -0.73783548	    -13.69621474	     18.19526632	      1.18150642	      0.00000000	     18.76385355	     -2.65161233	     -8.08018345	     -3.21456501	      5.36882480	     -1.10451385	      0.00000000	    -19.17963398	      6.51037621	      4.72627069
      6.23000000	      1.37330629	     -5.68793833	     -1.18542040	     -0.98133035	      0.91052848	      0.24118906	    -14.02349311	      9.57375463	     -0.90523796	    -14.93516210	     17.53752419	      1.33727831	      0.00000000	     18.44748205	     -2.19941277	     -5.97639754	     -3.94264637	      4.04807926	     -2.23330313	      0.00000000	    -18.98471686	      6.22530425	      4.63196033
      6.24000000	      1.45269136	     -5.37849741	     -1.13673928	     -0.96976465	      0.91034171	      0.23992663	    -14.04038330	      9.06863662	     -1.17581457	    -16.40792032	     16.71404738	      1.46534652	      0.00000000	     18.11514596	     -1.65600950	     -3.78258936	     -4.66903185	      2.39366477	     -3.62742573	      0.00000000	    -18.79671792	      5.86666479	      4.50382189
      6.25000000	      1.52964420	     -5.03508999	     -1.00179332	     -0.95818270	      0.91039097	      0.23853206	    -13.90948013	      8.54023386	     -1.59302596	    -18.09642147	     15.66938443	      1.55065122	      0.00000000	     17.86386611	     -1.05556400	     -1.64746852	     -5.53354179	      0.70575152	     -5.03265736	      0.00000000	    -18.59119071	      5.49309717	      4.28033554
      6.26000000	      1.61956927	     -4.66145156	     -0.80793906	     -0.94662169	      0.91070030	      0.23705509	    -13.63552167	      7.98143864	     -2.13783147	    -20.00869906	     14.36222038	      1.58338261	      0.00000000	     17.68806726	     -0.41413214	      0.19265568	     -6.57675299	     -0.83912726	     -6.37171450	      0.00000000	    -18.39627403	      5.10224595	      3.98446530
      6.27000000	      1.73453068	     -4.27907303	     -0.57077796	     -0.93512675	      0.91125203	      0.23552851	    -13.22738687	      7.40585201	     -2.79147151	    -22.13460269	     12.73959582	      1.53418471	      0.00000000	     17.56185942	      0.23559605	      1.59807448	     -7.79070545	     -2.04363130	     -7.53525599	      0.00000000	    -18.24005398	      4.71320215	      3.65149051
      6.28000000	      1.83360487	     -3.92499253	     -0.27908108	     -0.92376548	      0.91193192	      0.23396766	    -12.64147446	      6.85065676	     -3.56445955	    -24.44330251	     10.77665637	      1.33794050	      0.00000000	     17.52918570	      0.84662384	      2.51838016	     -9.18568716	     -2.61201758	     -8.21437542	      0.00000000	    -18.07861511	      4.36828809	      3.31908649
      6.29000000	      1.96928678	     -3.59077231	     -0.02138092	     -0.91255064	      0.91279575	      0.23245283	    -11.93776678	      6.27735095	     -4.34140832	    -26.91926122	      8.41254631	      1.02194695	      0.00000000	     17.41244477	      1.40140536	      2.99763615	    -10.53625873	     -2.73149166	     -8.73407315	      0.00000000	    -17.99667085	      4.04515762	      2.99864231
      6.30000000	      2.09012989	     -3.28643010	      0.19360323	     -0.90152762	      0.91373908	      0.23101791	    -11.08304683	      5.71004712	     -5.02880457	    -29.49699669	      5.61830375	      0.48618172	      0.00000000	     17.24092003	      1.88670090	      3.19171105	    -11.79252541	     -2.41889190	     -9.06093267	      0.00000000	    -17.93302120	      3.74178283	      2.76634275
      6.31000000	      2.19447768	     -3.01618972	      0.31220874	     -0.89072931	      0.91475879	      0.22974390	    -10.08161989	      5.16060203	     -5.50628029	    -32.14795449	      2.35404709	     -0.39297981	      0.00000000	     16.97015667	      2.27726417	      3.08295985	    -12.85000189	     -1.74430144	     -9.12246236	      0.00000000	    -17.89799743	      3.45458179	      2.64185279
      6.32000000	      2.31396711	     -2.76439729	      0.29738642	     -0.88017098	      0.91590099	      0.22871118	     -8.97636208	      4.61585140	     -5.73761717	    -34.84897190	     -1.27300186	     -1.46978771	      0.00000000	     16.56326247	      2.56711764	      2.57892997	    -13.68887573	     -0.74693417	     -8.65752895	      0.00000000	    -17.93634049	      3.14991014	      2.67600670
      6.33000000	      2.40397718	     -2.54010732	      0.18951983	     -0.86983647	      0.91706292	      0.22782684	     -7.73320746	      4.10094779	     -5.76316476	    -37.57756272	     -5.15362155	     -2.71131846	      0.00000000	     16.04696047	      2.80084798	      2.05099600	    -14.26061893	      0.27985396	     -8.23562097	      0.00000000	    -17.97678173	      2.86277021	      2.73960781
